<?xml version="1.0" encoding="iso-8859-1"?>
<!-- Generator: Adobe Illustrator 17.1.0, SVG Export Plug-In . SVG Version: 6.00 Build 0)  -->
<!DOCTYPE svg PUBLIC "-//W3C//DTD SVG 1.1//EN" "http://www.w3.org/Graphics/SVG/1.1/DTD/svg11.dtd">
<svg version="1.1" id="Capa_1" xmlns="http://www.w3.org/2000/svg" xmlns:xlink="http://www.w3.org/1999/xlink" x="0px" y="0px"
	 viewBox="0 0 461.187 461.187" style="enable-background:new 0 0 461.187 461.187;" xml:space="preserve">
<path d="M263.373,48.853l47.404-20.032c7.631-3.226,11.203-12.025,7.978-19.656S306.73-2.037,299.099,1.186l-47.402,20.032
	c-11.3,4.773-20.156,17.119-21.056,29.354l-2.627,35.702h-20.846c-11.128,0-19.52,9.204-19.52,21.409v28.584
	c0,13.2-6.291,34.551-13.47,45.704l-14.687,22.863c-10.231,15.853-18.246,43.067-18.246,61.956v150.17
	c0,24.386,19.834,44.226,44.214,44.226h84.619c24.406,0,44.262-19.84,44.262-44.226v-150.17c0-18.889-8.015-46.104-18.241-61.948
	l-14.744-22.876c-7.142-11.109-13.406-32.464-13.406-45.699v-28.584c0-8.533-3.97-15.586-10.029-19.065l2.634-35.793
	C260.727,51.65,262.361,49.373,263.373,48.853z M199.411,198.198c10.396-16.15,18.237-42.774,18.237-61.93v-19.993h8.158
	l-7.756,105.404h-33.712c0.126-0.202,0.251-0.408,0.377-0.604L199.411,198.198z M256.13,198.205l14.758,22.898
	c0.121,0.187,0.24,0.384,0.36,0.576h-23.118l2.468-33.543C252.329,191.783,254.185,195.178,256.13,198.205z"/>
<g>
</g>
<g>
</g>
<g>
</g>
<g>
</g>
<g>
</g>
<g>
</g>
<g>
</g>
<g>
</g>
<g>
</g>
<g>
</g>
<g>
</g>
<g>
</g>
<g>
</g>
<g>
</g>
<g>
</g>
</svg>
